<svg id="Layer_1" data-name="Layer 1" xmlns="http://www.w3.org/2000/svg" viewBox="0 0 487 160"><defs><style>.cls-1{fill:#ff671d;}.cls-2{fill:#007853;}</style></defs><path class="cls-1" d="M134.73,126.59c-44.71,1.94-82.3-18.61-84-45.9S84,29.7,128.7,27.76c23.62-1,45.25,4.24,60.66,13.45-17.11-12.1-43.07-19.25-71.72-18C68.39,25.34,30,51.44,31.79,81.51s43.25,52.71,92.5,50.57c28.63-1.23,53.59-10.59,69.13-24.1-14.19,10.49-35.07,17.59-58.69,18.61Z"/><path class="cls-2" d="M144.88,117.12l-16.48-.05,11.39-43.23c1.36-5.2,2-7.41,3.7-13.77-2.33,4.52-3.59,6.93-6.59,12.32L112.7,117l-13.78,0L97.78,73.73c-.08-4.91-.08-6.93-.06-13.59-1.56,6.27-2,8.19-3.31,12.9L82.63,117l-16,0,18.49-68,25.63.06.76,37.87c0,4.14,0,5.11-.31,9.54,2-4.43,2.52-5.59,5-10.4l19.94-36.95,26.31.08-17.62,68Z"/><path class="cls-2" d="M250.08,65H242l5.5-21.89c.66-2.63.95-3.75,1.8-7-1.14,2.29-1.75,3.51-3.21,6.24L234.36,65h-6.73L227,43.15c-.05-2.49-.05-3.51-.05-6.87-.75,3.17-1,4.14-1.6,6.53L219.68,65h-7.82l8.94-34.42h12.52l.43,19.16c0,2.1,0,2.58-.14,4.83,1-2.25,1.22-2.83,2.44-5.27l9.7-18.72H258.6L250.08,65Z"/><path class="cls-2" d="M270.26,36.91H262.6l1.5-6h7.67l-1.51,6Zm-7,28.13h-7.67l6.07-24.38h7.72L263.25,65Z"/><path class="cls-2" d="M289.89,65h-7.72l3.67-14.77a19.09,19.09,0,0,0,.76-3.76,2,2,0,0,0-2.08-2.19,4.41,4.41,0,0,0-2.91,1.36c-.85.88-1.13,1.56-1.65,3.76L276.05,65h-7.67l6.12-24.38h7.62l-.7,2.83c2.35-1.9,4.8-3.26,7.81-3.26,3.58,0,5.22,2.24,5.22,5a19.35,19.35,0,0,1-.8,4.68L289.89,65Z"/><path class="cls-2" d="M317.09,65h-7.62l.7-2.93a12.53,12.53,0,0,1-8.23,3.37c-3.72,0-5.84-2-5.84-5.32a17.27,17.27,0,0,1,.52-3.56l4-15.94h7.67l-3.72,14.82A14.58,14.58,0,0,0,304,59c0,1.81,1.36,2.29,2.54,2.29a5.22,5.22,0,0,0,4-2A10.24,10.24,0,0,0,311.72,56l3.86-15.31h7.63L317.09,65Z"/><path class="cls-2" d="M332.76,55.68a13.25,13.25,0,0,0-.56,3.17,2,2,0,0,0,2.25,2,9.62,9.62,0,0,0,2.26-.4l-1.08,4.25a19.61,19.61,0,0,1-5,.73,8.39,8.39,0,0,1-3.3-.54,4.3,4.3,0,0,1-3-4.53,15.24,15.24,0,0,1,.66-3.95L328.05,44H325l.85-3.32h3.1l1.18-4.72,8-1.46-1.56,6.18h3.91L339.58,44h-3.86l-3,11.7Z"/><path class="cls-2" d="M356.66,50.12a11.66,11.66,0,0,0,.47-3c0-2.05-1.12-3.41-3.15-3.41-3.53,0-4.79,3.55-5.64,6.43Zm6,7.21a9.86,9.86,0,0,1-2.82,4.78c-1.51,1.47-4.57,3.52-10.26,3.52-6.07,0-10.12-2.3-10.12-8.24a26.5,26.5,0,0,1,2.26-9.9c1.55-3.46,4.52-7.41,12.33-7.41,4.61,0,10.12,1.36,10.12,8.19a19.9,19.9,0,0,1-.8,5.27h-16a20,20,0,0,0-.71,4.48c0,2.63,1.46,3.9,3.53,3.9,3.67,0,4.56-3.12,5-4.59Z"/><path class="cls-2" d="M400.57,65H392.9l3.86-15.41a12.83,12.83,0,0,0,.52-2.92,2.13,2.13,0,0,0-2.31-2.3,4.49,4.49,0,0,0-3.15,1.47c-.89.93-1.18,1.85-1.79,4.15l-3.71,15h-7.68l3.82-15.21a15.05,15.05,0,0,0,.61-3.17,2.09,2.09,0,0,0-2.26-2.29,5,5,0,0,0-3.15,1.36c-1,1-1.27,2-1.89,4.3l-3.72,15h-7.67l6.12-24.38h7.63l-.71,2.93c3-2.48,5.7-3.36,7.95-3.36,2.64,0,4.85,1.12,5.37,4a13,13,0,0,1,3.2-2.4,11.54,11.54,0,0,1,5.6-1.6c1.27,0,5.55.39,5.55,5.21a22.47,22.47,0,0,1-.85,5L400.57,65Z"/><path class="cls-2" d="M421.52,53.24c-1.89.1-4.57.44-6.08,1.56a5,5,0,0,0-1.88,4,2.36,2.36,0,0,0,2.5,2.58,4.25,4.25,0,0,0,3.24-1.46,6.49,6.49,0,0,0,1.37-3l.85-3.61ZM427.63,65h-6.49c-1-.05-2-.15-2-1.81a7.85,7.85,0,0,1,.09-1.07,6.3,6.3,0,0,1-2.35,2,10,10,0,0,1-4.94,1.31,6.09,6.09,0,0,1-4.62-1.65A5.59,5.59,0,0,1,406,60.06a9.78,9.78,0,0,1,.24-2.24,8.22,8.22,0,0,1,5.6-6.09c2.69-1,7.57-1.42,10.45-1.61l.23-1a12.49,12.49,0,0,0,.52-3,2.26,2.26,0,0,0-2.58-2.39,3.61,3.61,0,0,0-2.83,1.37,7.34,7.34,0,0,0-1.27,2.93h-7.48a8.92,8.92,0,0,1,4.37-6.3,16.31,16.31,0,0,1,7.58-1.7,15,15,0,0,1,6.59,1.32,5.26,5.26,0,0,1,3,5,17.1,17.1,0,0,1-.42,3.12L427.12,60.7a10.89,10.89,0,0,0-.38,2.39,1.27,1.27,0,0,0,1,1.41l-.14.54Z"/><path class="cls-2" d="M452.57,65h-7.71l3.67-14.77a19,19,0,0,0,.75-3.76,2,2,0,0,0-2.07-2.19,4.45,4.45,0,0,0-2.92,1.36c-.84.88-1.13,1.56-1.65,3.76L438.74,65h-7.67l6.12-24.38h7.62l-.71,2.83c2.36-1.9,4.8-3.26,7.81-3.26,3.58,0,5.23,2.24,5.23,5a19.85,19.85,0,0,1-.8,4.68L452.57,65Z"/><path class="cls-2" d="M215.34,88h2.17a9.63,9.63,0,0,0,4.61-.77c2.49-1.37,3.86-5.07,3.86-7.8a5,5,0,0,0-.42-2.2c-1-2-2.88-2.1-5.23-2.1H218.5L215.34,88Zm-4.28,17.07H202.4L211,70.62H222.4c4.62,0,8,.1,10.26,2.68a7.9,7.9,0,0,1,1.7,5.22,18.29,18.29,0,0,1-1.7,7.41c-3.15,6.48-8.47,6.58-13.5,6.63h-5l-3.11,12.53Z"/><path class="cls-2" d="M238.08,105.09h-7.67l6.07-24.38h7.67l-1.27,4.83c1.51-2.34,3.39-5.26,7-5.26a3.92,3.92,0,0,1,1.88.43l-1.65,6.2a5.47,5.47,0,0,0-2.92-.93c-4.32,0-5.5,4.68-6.11,7.17l-3,11.94Z"/><path class="cls-2" d="M266.79,90.17a12.11,12.11,0,0,0,.47-3c0-2.05-1.13-3.41-3.15-3.41-3.53,0-4.8,3.55-5.65,6.43Zm6,7.22a9.88,9.88,0,0,1-2.82,4.77c-1.51,1.47-4.57,3.51-10.26,3.51-6.07,0-10.12-2.29-10.12-8.24a26.49,26.49,0,0,1,2.26-9.89c1.55-3.46,4.52-7.41,12.33-7.41,4.61,0,10.12,1.37,10.12,8.19a19.76,19.76,0,0,1-.8,5.26h-16a20.32,20.32,0,0,0-.71,4.49c0,2.63,1.46,3.9,3.53,3.9,3.67,0,4.57-3.12,5-4.58Z"/><path class="cls-2" d="M282.46,94.36c-1.83-.92-4.75-2.53-4.75-6.43a7.31,7.31,0,0,1,4-6.43,13,13,0,0,1,6.54-1.42c1.69,0,9.41,0,9.41,5.9a6.8,6.8,0,0,1-.14,1.31L291,87.1c0-.29.05-.63.05-.93,0-2.19-1.83-2.63-3.06-2.63-1.78,0-3.05,1-3.05,2.44,0,1.75,1.5,2.49,3.57,3.56l2.31,1c2,1.07,4.7,2.44,4.7,6.39a8.54,8.54,0,0,1-3.2,6.53c-1.6,1.27-4,2.19-7.81,2.19-5.08,0-10.35-1.22-10.35-6.33a10.92,10.92,0,0,1,.18-1.66l6.92.19c0,.25,0,.59,0,.88a3.23,3.23,0,0,0,3.52,3.41c2.31,0,3.44-1.51,3.44-3,0-2-1.64-2.83-3.53-3.7l-2.21-1.08Z"/><path class="cls-2" d="M305,94.36c-1.83-.92-4.75-2.53-4.75-6.43a7.3,7.3,0,0,1,4-6.43,13,13,0,0,1,6.53-1.42c1.7,0,9.41,0,9.41,5.9a6.09,6.09,0,0,1-.14,1.31l-6.44-.19c0-.29,0-.63,0-.93,0-2.19-1.83-2.63-3.06-2.63-1.78,0-3.05,1-3.05,2.44,0,1.75,1.5,2.49,3.57,3.56l2.31,1c2,1.07,4.7,2.44,4.7,6.39a8.56,8.56,0,0,1-3.19,6.53c-1.61,1.27-4.05,2.19-7.82,2.19-5.08,0-10.35-1.22-10.35-6.33a9.83,9.83,0,0,1,.19-1.66l6.91.19c0,.25,0,.59,0,.88a3.23,3.23,0,0,0,3.53,3.41,3.1,3.1,0,0,0,3.43-3c0-2-1.65-2.83-3.53-3.7L305,94.36Z"/><path class="cls-2" d="M324.78,101.88h.4a1,1,0,0,0,.32-.08.57.57,0,0,0,.24-.19.75.75,0,0,0,.08-.37.53.53,0,0,0-.08-.32.7.7,0,0,0-.2-.18.77.77,0,0,0-.27-.08,1.73,1.73,0,0,0-.32,0h-.81v1.26Zm.27-1.76a1.57,1.57,0,0,1,1,.29,1,1,0,0,1,.34.85,1,1,0,0,1-.3.78,1.34,1.34,0,0,1-.73.3l1.13,1.74h-.66l-1.08-1.7h-.65v1.7h-.61v-4Zm-2.78,3.12a2.82,2.82,0,0,0,.58.92,2.77,2.77,0,0,0,.89.61,2.72,2.72,0,0,0,1.11.22,2.66,2.66,0,0,0,1.09-.22,2.88,2.88,0,0,0,.89-.61,3,3,0,0,0,.58-.92,3.09,3.09,0,0,0,.21-1.15,3,3,0,0,0-.21-1.13,3,3,0,0,0-.58-.91,3,3,0,0,0-.89-.6,2.66,2.66,0,0,0-1.09-.22,2.72,2.72,0,0,0-1.11.22,2.91,2.91,0,0,0-.89.6,2.78,2.78,0,0,0-.58.91,2.85,2.85,0,0,0-.22,1.13,2.91,2.91,0,0,0,.22,1.15Zm-.56-2.48A3.31,3.31,0,0,1,323.54,99a3.19,3.19,0,0,1,1.31-.26,3.43,3.43,0,0,1,2.38,1,3.33,3.33,0,0,1,.73,1.07,3.11,3.11,0,0,1,.28,1.33,3.23,3.23,0,0,1-.28,1.35,3.33,3.33,0,0,1-.73,1.07,3.28,3.28,0,0,1-1.07.71,3.39,3.39,0,0,1-1.31.25,3.35,3.35,0,0,1-3.41-3.38,3.26,3.26,0,0,1,.27-1.33Z"/><path class="cls-2" d="M158.6,36.64a51.32,51.32,0,0,0-19.91,5.77,48.08,48.08,0,0,1,12.25-2.68c19.57-1.67,36.79,8.21,38.45,22.05s-12.87,26.43-32.45,28.09A47.4,47.4,0,0,1,138,87.74a51,51,0,0,0,27.29,4.94c21.88-1.87,38.12-15.92,36.27-31.39s-21.1-26.52-43-24.65Z"/><path class="cls-1" d="M198.69,115.91h2.66l.05,6,1.93-6h2.29l.08,6,1.88-6h2.67l-3.56,9.72H204l-.12-5.63L202,125.63h-2.71Z"/><path class="cls-1" d="M211.33,115.91h6.87l-.36,2.27h-4.09l-.22,1.4H217l-.37,2.26h-3.46l-.22,1.53h4.26l-.34,2.26h-7Z"/><path class="cls-1" d="M223.77,115.91h3.63a6.57,6.57,0,0,1,1.11.09,4.54,4.54,0,0,1,.92.26,2.71,2.71,0,0,1,1.33,1.13,3.73,3.73,0,0,1,.49,2l0,.65-.06.51a7.82,7.82,0,0,1-1,3,4,4,0,0,1-1.79,1.62,5.82,5.82,0,0,1-2.46.51h-3.61Zm2.41,2.27-.79,5.19H226c1.31,0,2.1-.91,2.37-2.71a8.53,8.53,0,0,0,.07-.93,1.5,1.5,0,0,0-.41-1.19,2.08,2.08,0,0,0-1.38-.36Z"/><path class="cls-1" d="M233.11,115.91H240l-.36,2.27h-4.09l-.22,1.4h3.48l-.36,2.26H235l-.22,1.53H239l-.34,2.26h-7Z"/><path class="cls-1" d="M245.55,118.73c0-.55-.34-.82-1-.82-.53,0-.84.17-.91.52a.62.62,0,0,0,.19.54,2,2,0,0,0,.71.36l.9.26a4.31,4.31,0,0,1,1.81.89,2,2,0,0,1,.63,1.52l0,.58a3.45,3.45,0,0,1-1.54,2.53,5.27,5.27,0,0,1-2.89.79,3.37,3.37,0,0,1-2.46-.9,2.76,2.76,0,0,1-.79-2v-.34h2.65a.9.9,0,0,0,.36.81,1.45,1.45,0,0,0,.78.23c.67,0,1.06-.22,1.18-.66v-.17a.5.5,0,0,0-.28-.45,8.29,8.29,0,0,0-1.2-.48,5.87,5.87,0,0,1-2-.91,2,2,0,0,1-.71-1.67l0-.38,0-.32a3.39,3.39,0,0,1,.67-1.5,3.57,3.57,0,0,1,1.41-1.07,5.16,5.16,0,0,1,2-.38,3.54,3.54,0,0,1,2.3.73,2.84,2.84,0,0,1,.83,2.33Z"/><path class="cls-1" d="M250.27,115.91H253l-1.48,9.72h-2.75Z"/><path class="cls-1" d="M257.93,122.4l.31-2.11H262l-.82,5.37h-1.76l0-1a3.54,3.54,0,0,1-2.7,1.19,3.17,3.17,0,0,1-2.52-1.06,4.13,4.13,0,0,1-.9-2.76v-.61l.08-.52a7,7,0,0,1,1.7-3.76,4.49,4.49,0,0,1,1.56-1.13,4.7,4.7,0,0,1,1.94-.39,4.61,4.61,0,0,1,1,.09,3.23,3.23,0,0,1,.85.33,2.76,2.76,0,0,1,1.19,1.2,4,4,0,0,1,.42,1.91v.06h-2.61c-.09-.81-.5-1.22-1.24-1.22-1.21,0-1.92,1.23-2.11,3.7,0,1.19.48,1.79,1.43,1.79a1.71,1.71,0,0,0,.93-.32,1.62,1.62,0,0,0,.66-.81Z"/><path class="cls-1" d="M264.66,115.91h2.61l2.18,5.3.23-2.16.48-3.14h2.63l-1.48,9.72h-2.58l-2.2-5.3-.22,2.21-.48,3.09h-2.65Z"/><path class="cls-1" d="M273.94,122.84h2.46l-.35,2.3a3.8,3.8,0,0,1-.95,2.12,2.64,2.64,0,0,1-2,.75l.19-1.18a1.34,1.34,0,0,0,.86-.38,1.33,1.33,0,0,0,.46-.81H273.5Z"/><path class="cls-1" d="M283.09,115.91h4a4.25,4.25,0,0,1,1.75.31,2.15,2.15,0,0,1,1.05.86,2.75,2.75,0,0,1,.35,1.45,4.93,4.93,0,0,1-.07.81,3.59,3.59,0,0,1-4,3.26h-1.41l-.46,3h-2.75Zm2.42,2.27-.35,2.15h1.19a1.19,1.19,0,0,0,.88-.37,1.28,1.28,0,0,0,.37-.93c0-.57-.43-.85-1.28-.85Z"/><path class="cls-1" d="M291.71,115.91h4.07a4.35,4.35,0,0,1,2.53.54A1.81,1.81,0,0,1,299,118a4,4,0,0,1-.46,2,2.17,2.17,0,0,1-1.36,1.1,2.23,2.23,0,0,1,.88.59,1.63,1.63,0,0,1,.24,1,8,8,0,0,1-.07.95l-.11.76-.1.66c0,.2.1.3.24.3l0,.28h-2.78v-.35a8.39,8.39,0,0,1,.07-1l.09-1.09q0-.66-.36-.81a3.84,3.84,0,0,0-1.32-.16h-.41l-.52,3.4h-2.76Zm2.41,2.27-.3,1.92H295c.84,0,1.29-.31,1.36-.94a.89.89,0,0,0-.06-.49.76.76,0,0,0-.35-.36,1,1,0,0,0-.5-.13Z"/><path class="cls-1" d="M301.1,115.91h2.76l-1.48,9.72h-2.76Z"/><path class="cls-1" d="M305.66,115.91h2.6l2.18,5.3.24-2.16.48-3.14h2.62l-1.48,9.72h-2.58l-2.19-5.3-.23,2.21-.47,3.09h-2.66Z"/><path class="cls-1" d="M315.07,115.91h7.7l-.38,2.56H319.9l-1.07,7.16h-2.78l1.1-7.16h-2.47Z"/><path class="cls-1" d="M328.93,120.16a1.84,1.84,0,0,1-.2-.31c-.05-.12-.11-.24-.18-.38a2.54,2.54,0,0,1-.13-.77,2.71,2.71,0,0,1,.36-1.33,2.66,2.66,0,0,1,1.12-1.05,3.75,3.75,0,0,1,1.81-.41,2.46,2.46,0,0,1,1.79.62,2.13,2.13,0,0,1,.65,1.59,2.93,2.93,0,0,1-.45,1.55,3.75,3.75,0,0,1-1.32,1.27l.6.88a6.65,6.65,0,0,0,.66-.83h2.23a13.76,13.76,0,0,1-1.77,2.35l1.58,2.29h-2.95l-.52-.82a6.85,6.85,0,0,1-.66.43q-.37.2-.78.36a4.74,4.74,0,0,1-1.6.3,2.47,2.47,0,0,1-2.15-1,2.59,2.59,0,0,1-.29-.55,2.75,2.75,0,0,1-.09-.73,3.8,3.8,0,0,1,.58-2A4,4,0,0,1,328.93,120.16Zm1.22,1.6a2,2,0,0,0-1.09,1.08v.28a.65.65,0,0,0,.16.46,1.08,1.08,0,0,0,.5.26,3.36,3.36,0,0,0,1.39-.61l-.43-.69Zm1-2.29a3,3,0,0,0,.76-.51,1,1,0,0,0,.29-.75c0-.41-.22-.61-.67-.61a1,1,0,0,0-.64.2.5.5,0,0,0-.22.21.54.54,0,0,0-.07.29v.2A1.3,1.3,0,0,0,331.11,119.47Z"/><path class="cls-1" d="M342.46,115.91h4a4.25,4.25,0,0,1,1.75.31,2.11,2.11,0,0,1,1.05.86,2.75,2.75,0,0,1,.35,1.45,4.93,4.93,0,0,1-.07.81,3.59,3.59,0,0,1-4,3.26h-1.41l-.46,3H341Zm2.42,2.27-.35,2.15h1.19a1.19,1.19,0,0,0,.88-.37A1.28,1.28,0,0,0,347,119c0-.57-.43-.85-1.28-.85Z"/><path class="cls-1" d="M351.08,115.91h4.07a4.35,4.35,0,0,1,2.53.54,1.81,1.81,0,0,1,.7,1.55,4,4,0,0,1-.46,2,2.17,2.17,0,0,1-1.36,1.1,2.23,2.23,0,0,1,.88.59,1.63,1.63,0,0,1,.24,1,8,8,0,0,1-.07.95l-.11.76-.1.66c0,.2.1.3.24.3l-.05.28h-2.78v-.35a8.39,8.39,0,0,1,.07-1l.09-1.09q0-.66-.36-.81a3.84,3.84,0,0,0-1.32-.16h-.41l-.52,3.4h-2.76Zm2.41,2.27-.3,1.92h1.17c.84,0,1.29-.31,1.36-.94a.89.89,0,0,0-.06-.49.76.76,0,0,0-.35-.36,1,1,0,0,0-.5-.13Z"/><path class="cls-1" d="M364.49,115.67a3.36,3.36,0,0,1,2.77,1.13,4.65,4.65,0,0,1,.69,1.29,6.43,6.43,0,0,1,.17.76,6,6,0,0,1,.06.89v.51l-.05.41a6.74,6.74,0,0,1-.86,2.57,5.3,5.3,0,0,1-1.82,1.94,4.62,4.62,0,0,1-2.54.73,3.34,3.34,0,0,1-2.79-1.15,4.45,4.45,0,0,1-.92-2.85l0-.37,0-.45,0-.39a7.48,7.48,0,0,1,.87-2.5,5.25,5.25,0,0,1,1.77-1.8A4.67,4.67,0,0,1,364.49,115.67ZM364.1,118c-1.19,0-1.9,1.21-2.12,3.62,0,1.24.43,1.87,1.3,1.87a1.73,1.73,0,0,0,1.58-1.14,5.43,5.43,0,0,0,.56-2.47,2.46,2.46,0,0,0-.32-1.37A1.08,1.08,0,0,0,364.1,118Z"/><path class="cls-1" d="M373.44,115.91,374,122l2.42-6.07h3.33l-1.49,9.72h-2.48l.51-3.23.21-1.24.42-1.77-2.51,6.24h-1.91l-.6-6.24-.12,1.37c-.1,1.16-.33,2.78-.68,4.87h-2.46l1.49-9.72Z"/><path class="cls-1" d="M385.47,115.67a3.36,3.36,0,0,1,2.77,1.13,4.4,4.4,0,0,1,.69,1.29,6.43,6.43,0,0,1,.17.76,6,6,0,0,1,.06.89v.51l-.05.41a6.74,6.74,0,0,1-.86,2.57,5.3,5.3,0,0,1-1.82,1.94,4.59,4.59,0,0,1-2.54.73,3.34,3.34,0,0,1-2.79-1.15,4.45,4.45,0,0,1-.92-2.85l0-.37,0-.45,0-.39a7.48,7.48,0,0,1,.87-2.5,5.25,5.25,0,0,1,1.77-1.8A4.67,4.67,0,0,1,385.47,115.67Zm-.39,2.37c-1.19,0-1.9,1.21-2.12,3.62,0,1.24.43,1.87,1.3,1.87a1.73,1.73,0,0,0,1.58-1.14,5.43,5.43,0,0,0,.56-2.47,2.46,2.46,0,0,0-.32-1.37A1.08,1.08,0,0,0,385.08,118Z"/><path class="cls-1" d="M390.75,115.91h7.7l-.38,2.56h-2.49l-1.07,7.16h-2.78l1.1-7.16h-2.47Z"/><path class="cls-1" d="M399.84,115.91h6.87l-.36,2.27h-4.09l-.22,1.4h3.48l-.36,2.26h-3.47l-.22,1.53h4.26l-.34,2.26h-7Z"/><path class="cls-1" d="M407.16,122.84h2.49l-.44,2.79h-2.46Z"/><path class="cls-1" d="M411.17,122.84h2.48l-.44,2.79h-2.45Z"/><path class="cls-1" d="M415.17,122.84h2.49l-.45,2.79h-2.45Z"/><path class="cls-2" d="M419.56,115.91h3.11l.93,3.29,2-3.29h3l-4,6.13-.55,3.59h-2.77l.53-3.53Z"/><path class="cls-2" d="M433.67,115.67a3.35,3.35,0,0,1,2.76,1.13,4.18,4.18,0,0,1,.69,1.29,4.94,4.94,0,0,1,.18.76,7.94,7.94,0,0,1,.05.89v.51l0,.41a7.1,7.1,0,0,1-.86,2.57,5.41,5.41,0,0,1-1.83,1.94,4.58,4.58,0,0,1-2.53.73,3.35,3.35,0,0,1-2.8-1.15,4.44,4.44,0,0,1-.91-2.85l0-.37,0-.45,0-.39a7.49,7.49,0,0,1,.88-2.5,5.31,5.31,0,0,1,1.76-1.8A4.68,4.68,0,0,1,433.67,115.67Zm-.39,2.37c-1.2,0-1.91,1.21-2.13,3.62,0,1.24.44,1.87,1.3,1.87a1.73,1.73,0,0,0,1.59-1.14,5.56,5.56,0,0,0,.56-2.47,2.55,2.55,0,0,0-.32-1.37A1.11,1.11,0,0,0,433.28,118Z"/><path class="cls-2" d="M439.4,115.91h2.77l-.9,5.85a1,1,0,0,1,0,.31l0,.35a.94.94,0,0,0,1.06,1.08,1.32,1.32,0,0,0,1.06-.43,2.66,2.66,0,0,0,.52-1.31l.88-5.85h2.77l-.85,5.53a5.55,5.55,0,0,1-1.54,3.39,4.62,4.62,0,0,1-3.18,1.07,4,4,0,0,1-2.6-.74,3,3,0,0,1-.89-2.43v-.34a3,3,0,0,1,0-.39c0-.14,0-.24,0-.3s0-.14.05-.26Z"/><path class="cls-2" d="M448.06,123h2.39l-.38,2.6h-2.42Zm1.07-7.12h2.48l-.36,2.4-1.18,3.76h-1.33l0-3.76Z"/><path class="cls-1" d="M335.56,105.18h-2l2.17-10.38h2l-2.17,10.38Zm3.7,0h-1.89l2.18-10.38h2.07l1,5.71c0,.24.08.54.11.89s0,.74.05,1.17h.09c0-.49.07-.94.11-1.34s.09-.74.15-1l1-5.41H346l-2.15,10.38h-2.14l-.87-5.88c-.05-.34-.09-.69-.12-1s-.05-.7-.06-1h-.09c0,.37-.05.76-.09,1.15s-.1.8-.18,1.23l-1.05,5.59Zm9.66,0H347l1.84-8.77h-2.27l.33-1.61h6.31l-.34,1.61h-2.1l-1.85,8.77Zm3.36,0,2.17-10.38h5.07l-.33,1.66H356L355.46,99h3.12l-.33,1.6h-3.12l-.62,2.93h3.41l-.33,1.67Zm9.93-6h1a2.13,2.13,0,0,0,1.52-.44,1.94,1.94,0,0,0,.47-1.45,1,1,0,0,0-.33-.86,1.75,1.75,0,0,0-1.08-.25h-.95l-.62,3Zm-1.21,6h-1.92l2.17-10.38h2.65a4.23,4.23,0,0,1,2.56.58,2.35,2.35,0,0,1,.76,2,3,3,0,0,1-.59,1.84,2.26,2.26,0,0,1-1.53.9,1.32,1.32,0,0,1,.8.5,1.84,1.84,0,0,1,.25,1,1.57,1.57,0,0,1,0,.29c0,.11,0,.27-.07.48l-.24,1.35,0,.23a2.73,2.73,0,0,0,0,.31,1.31,1.31,0,0,0,.05.39,2.8,2.8,0,0,0,.15.48H363.9a1.32,1.32,0,0,1-.08-.3,2.21,2.21,0,0,1,0-.39c0-.13,0-.27,0-.41s0-.31.06-.47l.2-1.23c0-.11,0-.22,0-.35s0-.25,0-.38a.89.89,0,0,0-.37-.82,2.52,2.52,0,0,0-1.29-.23h-.27l-.23,0-1,4.56Zm8.12,0h-1.9l2.19-10.38h2.07l1,5.71a8,8,0,0,1,.11.89c0,.34,0,.74.05,1.17h.09c0-.49.07-.94.12-1.34s.09-.74.14-1l1-5.41h1.9l-2.15,10.38h-2.15l-.87-5.88c-.05-.34-.09-.69-.12-1s-.05-.7-.05-1h-.1c0,.37,0,.76-.08,1.15s-.11.8-.18,1.23l-1.05,5.59Zm9.35-4.15h1.6l.15-5-1.75,5Zm-1.63,4.15h-2l4.38-10.38h2.47l.24,10.38H380v-2.66h-2.15l-1.05,2.66Zm8.71,0h-1.93l1.85-8.77h-2.28l.34-1.61h6.31l-.35,1.61h-2.1l-1.84,8.77Zm5.33,0h-2l2.17-10.38h2l-2.17,10.38ZM397.59,96a1.14,1.14,0,0,0-.89.39,4.09,4.09,0,0,0-.63,1.41c-.3,1.08-.55,2.09-.74,3a10.94,10.94,0,0,0-.29,1.75,1.59,1.59,0,0,0,.29,1,1.16,1.16,0,0,0,.91.34,1.21,1.21,0,0,0,1-.46,6,6,0,0,0,.74-2c.24-1,.42-1.88.57-2.68a11.63,11.63,0,0,0,.21-1.62,1.21,1.21,0,0,0-.3-.89,1.18,1.18,0,0,0-.89-.31Zm-4.36,6.62c0-.26,0-.54,0-.85s.08-.64.14-1c.15-.87.31-1.64.48-2.32a11.61,11.61,0,0,1,.48-1.56,4.28,4.28,0,0,1,1.27-1.78,3,3,0,0,1,1.87-.55,3.37,3.37,0,0,1,2.34.69,2.77,2.77,0,0,1,.76,2.14c0,.19,0,.4,0,.61s0,.44-.08.67c-.1.75-.23,1.47-.37,2.15s-.31,1.25-.47,1.74a4.79,4.79,0,0,1-1.33,2.2,3.31,3.31,0,0,1-2.15.67,3.17,3.17,0,0,1-2.22-.71,2.73,2.73,0,0,1-.75-2.08Zm9.46,2.55h-1.9L403,94.8h2.07l1,5.71a8,8,0,0,1,.11.89c0,.34.05.74.05,1.17h.09c0-.49.07-.94.12-1.34s.09-.74.14-1l1-5.41h1.9l-2.15,10.38h-2.15l-.87-5.88c0-.34-.09-.69-.12-1s0-.7,0-1H404c0,.37,0,.76-.08,1.15s-.11.8-.18,1.23l-1.05,5.59ZM412,101h1.6l.15-5L412,101Zm-1.63,4.15h-2L412.8,94.8h2.47l.24,10.38h-1.9v-2.66h-2.15l-1,2.66Zm5.95,0,2.17-10.38h1.89l-1.81,8.67h3.5l-.38,1.71Zm7.26,0h-.95l.37-1.78h1.81l-.43,2.07a2.28,2.28,0,0,1-.69,1.35,2.36,2.36,0,0,1-1.48.39l.12-.58a1.1,1.1,0,0,0,.91-.38,1.59,1.59,0,0,0,.34-1.07Zm7.82,0h-2l2.17-10.38h2l-2.17,10.38Zm3.7,0h-1.89l2.18-10.38h2.07l1,5.71a6.16,6.16,0,0,1,.11.89c0,.34.05.74.06,1.17h.08c0-.49.07-.94.12-1.34a9.09,9.09,0,0,1,.15-1l1-5.41h1.9l-2.15,10.38h-2.15l-.86-5.88c-.06-.34-.09-.69-.13-1s0-.7-.05-1h-.09c0,.37,0,.76-.09,1.15s-.11.8-.18,1.23l-1.05,5.59Zm11.54-3.37h1.82a5,5,0,0,1-1.12,2.71,3,3,0,0,1-2.3.9,3.21,3.21,0,0,1-2.24-.7,2.65,2.65,0,0,1-.76-2.08c0-.24,0-.51.05-.82s.08-.65.15-1c.16-.91.31-1.71.48-2.38a10.3,10.3,0,0,1,.46-1.54,4.06,4.06,0,0,1,1.24-1.77,2.94,2.94,0,0,1,1.84-.55,2.55,2.55,0,0,1,3,3c0,.13,0,.35,0,.67a.71.71,0,0,1,0,.16h-1.86c0-.19,0-.37,0-.52s0-.28,0-.39a1.83,1.83,0,0,0-.25-1.12,1,1,0,0,0-.84-.33,1.05,1.05,0,0,0-.86.39,3.67,3.67,0,0,0-.59,1.41c-.29,1.09-.51,2.1-.69,3a13.15,13.15,0,0,0-.25,1.86,1.37,1.37,0,0,0,.29,1,1.15,1.15,0,0,0,.87.31,1.22,1.22,0,0,0,1-.52,3.84,3.84,0,0,0,.57-1.64Zm4.67,3.37h-1.81l.39-1.79h1.81l-.39,1.79Z"/></svg>